<svg xmlns="http://www.w3.org/2000/svg" viewBox="0 0 128 128">
  <rect width="128" height="128" rx="32" fill="#fff1e8"/>
  <path d="M31 47 45 20l18 23" fill="#ef7d32"/>
  <path d="M97 47 83 20 65 43" fill="#ef7d32"/>
  <path d="M41 39 46 29l8 10" fill="#ffe9d6"/>
  <path d="M87 39 82 29l-8 10" fill="#ffe9d6"/>
  <circle cx="64" cy="72" r="34" fill="#ef7d32"/>
  <path d="M44 78c4-18 36-18 40 0-6 11-15 18-20 18s-14-7-20-18z" fill="#fff5ef"/>
  <circle cx="51" cy="63" r="4" fill="#2b2b2b"/>
  <circle cx="77" cy="63" r="4" fill="#2b2b2b"/>
  <circle cx="64" cy="77" r="5" fill="#2b2b2b"/>
  <path d="M57 85c3 4 11 4 14 0" fill="none" stroke="#2b2b2b" stroke-linecap="round" stroke-width="4"/>
</svg>
